<svg width="24" height="24" viewBox="0 0 24 24" fill="none" xmlns="http://www.w3.org/2000/svg">
<path d="M20.25 10.5006V19.5006C20.25 19.8984 20.092 20.2799 19.8107 20.5612C19.5294 20.8426 19.1478 21.0006 18.75 21.0006H5.25C4.85218 21.0006 4.47064 20.8426 4.18934 20.5612C3.90804 20.2799 3.75 19.8984 3.75 19.5006V10.5006C3.75 10.1028 3.90804 9.72123 4.18934 9.43993C4.47064 9.15863 4.85218 9.00059 5.25 9.00059H7.5C7.69891 9.00059 7.88968 9.07961 8.03033 9.22026C8.17098 9.36091 8.25 9.55168 8.25 9.75059C8.25 9.9495 8.17098 10.1403 8.03033 10.2809C7.88968 10.4216 7.69891 10.5006 7.5 10.5006H5.25V19.5006H18.75V10.5006H16.5C16.3011 10.5006 16.1103 10.4216 15.9697 10.2809C15.829 10.1403 15.75 9.9495 15.75 9.75059C15.75 9.55168 15.829 9.36091 15.9697 9.22026C16.1103 9.07961 16.3011 9.00059 16.5 9.00059H18.75C19.1478 9.00059 19.5294 9.15863 19.8107 9.43993C20.092 9.72123 20.25 10.1028 20.25 10.5006ZM8.78063 6.53122L11.25 4.0609V12.7506C11.25 12.9495 11.329 13.1403 11.4697 13.2809C11.6103 13.4216 11.8011 13.5006 12 13.5006C12.1989 13.5006 12.3897 13.4216 12.5303 13.2809C12.671 13.1403 12.75 12.9495 12.75 12.7506V4.0609L15.2194 6.53122C15.3601 6.67195 15.551 6.75101 15.75 6.75101C15.949 6.75101 16.1399 6.67195 16.2806 6.53122C16.4214 6.39048 16.5004 6.19961 16.5004 6.00059C16.5004 5.80157 16.4214 5.6107 16.2806 5.46996L12.5306 1.71997C12.461 1.65023 12.3783 1.59491 12.2872 1.55717C12.1962 1.51943 12.0986 1.5 12 1.5C11.9014 1.5 11.8038 1.51943 11.7128 1.55717C11.6217 1.59491 11.539 1.65023 11.4694 1.71997L7.71937 5.46996C7.57864 5.6107 7.49958 5.80157 7.49958 6.00059C7.49958 6.19961 7.57864 6.39048 7.71938 6.53121C7.86011 6.67195 8.05098 6.75101 8.25 6.75101C8.44902 6.75101 8.63989 6.67195 8.78063 6.53122Z" fill="#1E293B"/>
</svg>
